# MagicaVoxel @ Ephtracy

# group
o farmer_hat_1

# material
mtllib Villager-0-farmer_hat_1.mtl
usemtl palette

# normals
vn -1 0 0
vn 1 0 0
vn 0 0 1
vn 0 0 -1
vn 0 -1 0
vn 0 1 0

# texcoords
vt 0.0214844 0.5
vt 0.537109 0.5
vt 0.841797 0.5

# verts
v -0.9 2.9 0.5
v -0.9 2.9 -1.1
v -0.9 3 0.5
v -0.9 3 -1.1
v -0.7 2.1 0.2
v -0.7 2.1 -0.2
v -0.7 2.5 -0.4
v -0.7 2.5 -0.5
v -0.7 2.6 -0.2
v -0.7 2.6 -0.4
v -0.7 2.8 -0.5
v -0.7 2.8 -0.7
v -0.7 2.9 0.2
v -0.7 2.9 -0.7
v -0.7 3 0.3
v -0.7 3 -0.9
v -0.7 3.1 0.3
v -0.7 3.1 -0.9
v -0.6 2 0.2
v -0.6 2 0
v -0.6 2.1 0.3
v -0.6 2.1 0.2
v -0.6 2.1 0
v -0.6 2.9 0.3
v -0.6 2.9 0.2
v -0.6 3.1 0.2
v -0.6 3.1 -0.8
v -0.6 3.2 0.2
v -0.6 3.2 -0.8
v -0.5 3.2 0.1
v -0.5 3.2 -0.7
v -0.5 3.3 0.1
v -0.5 3.3 -0.7
v -0.4 3.3 0
v -0.4 3.3 -0.6
v -0.4 3.4 0
v -0.4 3.4 -0.6
v 0 2.8 -0.8
v 0 2.8 -0.9
v 0 2.9 -0.8
v 0 2.9 -0.9
v 0.5 2.9 0.1
v 0.5 2.9 -0.7
v 0.5 3 0.1
v 0.5 3 -0.7
v 0.5 3.2 0
v 0.5 3.2 -0.6
v 0.5 3.3 0
v 0.5 3.3 -0.6
v 0.6 2 0.1
v 0.6 2 0
v 0.6 2.1 0.1
v 0.6 2.1 0
v 0.6 3.1 0.1
v 0.6 3.1 -0.7
v 0.6 3.2 0.1
v 0.6 3.2 -0.7
v 0.7 2.1 0.2
v 0.7 2.1 0
v 0.7 2.1 -0.2
v 0.7 2.5 -0.4
v 0.7 2.5 -0.5
v 0.7 2.6 -0.2
v 0.7 2.6 -0.4
v 0.7 2.8 -0.5
v 0.7 2.8 -0.7
v 0.7 2.9 0.2
v 0.7 2.9 -0.7
v 0.7 3 0.2
v 0.7 3 -0.8
v 0.7 3.1 0.2
v 0.7 3.1 -0.8
v -0.6 2.1 0.2
v -0.6 2.1 0
v -0.6 2.1 -0.2
v -0.6 2.5 -0.4
v -0.6 2.5 -0.5
v -0.6 2.6 -0.2
v -0.6 2.6 -0.4
v -0.6 2.8 -0.5
v -0.6 2.8 -0.7
v -0.6 2.9 0.2
v -0.6 2.9 -0.7
v -0.6 3 0.2
v -0.6 3 -0.8
v -0.6 3.1 0.2
v -0.6 3.1 -0.8
v -0.5 2 0.1
v -0.5 2 0
v -0.5 2.1 0.1
v -0.5 2.1 0
v -0.5 2.9 0.1
v -0.5 2.9 -0.7
v -0.5 3 0.1
v -0.5 3 -0.7
v -0.5 3.1 0.1
v -0.5 3.1 -0.7
v -0.5 3.2 0.1
v -0.5 3.2 -0.7
v -0.4 3.2 0
v -0.4 3.2 -0.6
v -0.4 3.3 0
v -0.4 3.3 -0.6
v 0.1 2.8 -0.8
v 0.1 2.8 -0.9
v 0.1 2.9 -0.8
v 0.1 2.9 -0.9
v 0.5 3.3 0
v 0.5 3.3 -0.6
v 0.5 3.4 0
v 0.5 3.4 -0.6
v 0.6 3.2 0.1
v 0.6 3.2 -0.7
v 0.6 3.3 0.1
v 0.6 3.3 -0.7
v 0.7 2 0.2
v 0.7 2 0
v 0.7 2.1 0.3
v 0.7 2.1 0.2
v 0.7 2.1 0
v 0.7 2.9 0.3
v 0.7 2.9 0.2
v 0.7 3.1 0.2
v 0.7 3.1 -0.8
v 0.7 3.2 0.2
v 0.7 3.2 -0.8
v 0.8 2.1 0.2
v 0.8 2.1 -0.2
v 0.8 2.5 -0.4
v 0.8 2.5 -0.5
v 0.8 2.6 -0.2
v 0.8 2.6 -0.4
v 0.8 2.8 -0.5
v 0.8 2.8 -0.7
v 0.8 2.9 0.2
v 0.8 2.9 -0.7
v 0.8 3 0.3
v 0.8 3 -0.9
v 0.8 3.1 0.3
v 0.8 3.1 -0.9
v 1 2.9 0.5
v 1 2.9 -1.1
v 1 3 0.5
v 1 3 -1.1
v -0.9 2.9 0.5
v -0.9 3 0.5
v 1 2.9 0.5
v 1 3 0.5
v -0.7 3 0.3
v -0.7 3.1 0.3
v -0.6 2.1 0.3
v -0.6 2.9 0.3
v 0.7 2.1 0.3
v 0.7 2.9 0.3
v 0.8 3 0.3
v 0.8 3.1 0.3
v -0.7 2.1 0.2
v -0.7 2.9 0.2
v -0.6 2 0.2
v -0.6 2.1 0.2
v -0.6 2.9 0.2
v -0.6 3.1 0.2
v -0.6 3.2 0.2
v 0.7 2 0.2
v 0.7 2.1 0.2
v 0.7 2.9 0.2
v 0.7 3.1 0.2
v 0.7 3.2 0.2
v 0.8 2.1 0.2
v 0.8 2.9 0.2
v -0.5 3.2 0.1
v -0.5 3.3 0.1
v 0.6 3.2 0.1
v 0.6 3.3 0.1
v -0.4 3.3 0
v -0.4 3.4 0
v 0.5 3.3 0
v 0.5 3.4 0
v -0.7 2.5 -0.4
v -0.7 2.6 -0.4
v -0.6 2.5 -0.4
v -0.6 2.6 -0.4
v 0.7 2.5 -0.4
v 0.7 2.6 -0.4
v 0.8 2.5 -0.4
v 0.8 2.6 -0.4
v -0.4 3.2 -0.6
v -0.4 3.3 -0.6
v 0.5 3.2 -0.6
v 0.5 3.3 -0.6
v -0.5 2.9 -0.7
v -0.5 3 -0.7
v -0.5 3.1 -0.7
v -0.5 3.2 -0.7
v 0.5 2.9 -0.7
v 0.5 3 -0.7
v 0.6 3.1 -0.7
v 0.6 3.2 -0.7
v -0.6 3 -0.8
v -0.6 3.1 -0.8
v 0 2.8 -0.8
v 0 2.9 -0.8
v 0.1 2.8 -0.8
v 0.1 2.9 -0.8
v 0.7 3 -0.8
v 0.7 3.1 -0.8
v -0.6 2.1 0.2
v -0.6 2.9 0.2
v -0.6 3 0.2
v -0.6 3.1 0.2
v 0.7 2.1 0.2
v 0.7 2.9 0.2
v 0.7 3 0.2
v 0.7 3.1 0.2
v -0.5 2 0.1
v -0.5 2.1 0.1
v -0.5 2.9 0.1
v -0.5 3 0.1
v -0.5 3.1 0.1
v -0.5 3.2 0.1
v 0.5 2.9 0.1
v 0.5 3 0.1
v 0.6 2 0.1
v 0.6 2.1 0.1
v 0.6 3.1 0.1
v 0.6 3.2 0.1
v -0.6 2 0
v -0.6 2.1 0
v -0.5 2 0
v -0.5 2.1 0
v -0.4 3.2 0
v -0.4 3.3 0
v 0.5 3.2 0
v 0.5 3.3 0
v 0.6 2 0
v 0.6 2.1 0
v 0.7 2 0
v 0.7 2.1 0
v -0.7 2.1 -0.2
v -0.7 2.6 -0.2
v -0.6 2.1 -0.2
v -0.6 2.6 -0.2
v 0.7 2.1 -0.2
v 0.7 2.6 -0.2
v 0.8 2.1 -0.2
v 0.8 2.6 -0.2
v -0.7 2.5 -0.5
v -0.7 2.8 -0.5
v -0.6 2.5 -0.5
v -0.6 2.8 -0.5
v 0.7 2.5 -0.5
v 0.7 2.8 -0.5
v 0.8 2.5 -0.5
v 0.8 2.8 -0.5
v -0.4 3.3 -0.6
v -0.4 3.4 -0.6
v 0.5 3.3 -0.6
v 0.5 3.4 -0.6
v -0.7 2.8 -0.7
v -0.7 2.9 -0.7
v -0.6 2.8 -0.7
v -0.6 2.9 -0.7
v -0.5 3.2 -0.7
v -0.5 3.3 -0.7
v 0.6 3.2 -0.7
v 0.6 3.3 -0.7
v 0.7 2.8 -0.7
v 0.7 2.9 -0.7
v 0.8 2.8 -0.7
v 0.8 2.9 -0.7
v -0.6 3.1 -0.8
v -0.6 3.2 -0.8
v 0.7 3.1 -0.8
v 0.7 3.2 -0.8
v -0.7 3 -0.9
v -0.7 3.1 -0.9
v 0 2.8 -0.9
v 0 2.9 -0.9
v 0.1 2.8 -0.9
v 0.1 2.9 -0.9
v 0.8 3 -0.9
v 0.8 3.1 -0.9
v -0.9 2.9 -1.1
v -0.9 3 -1.1
v 1 2.9 -1.1
v 1 3 -1.1
v -0.6 2 0.2
v 0.7 2 0.2
v -0.5 2 0.1
v 0.6 2 0.1
v -0.6 2 0
v -0.5 2 0
v 0.6 2 0
v 0.7 2 0
v -0.6 2.1 0.3
v 0.7 2.1 0.3
v -0.7 2.1 0.2
v -0.6 2.1 0.2
v 0.7 2.1 0.2
v 0.8 2.1 0.2
v -0.6 2.1 0
v 0.7 2.1 0
v -0.7 2.1 -0.2
v -0.6 2.1 -0.2
v 0.7 2.1 -0.2
v 0.8 2.1 -0.2
v -0.7 2.5 -0.4
v -0.6 2.5 -0.4
v 0.7 2.5 -0.4
v 0.8 2.5 -0.4
v -0.7 2.5 -0.5
v -0.6 2.5 -0.5
v 0.7 2.5 -0.5
v 0.8 2.5 -0.5
v -0.7 2.6 -0.2
v -0.6 2.6 -0.2
v 0.7 2.6 -0.2
v 0.8 2.6 -0.2
v -0.7 2.6 -0.4
v -0.6 2.6 -0.4
v 0.7 2.6 -0.4
v 0.8 2.6 -0.4
v -0.7 2.8 -0.5
v -0.6 2.8 -0.5
v 0.7 2.8 -0.5
v 0.8 2.8 -0.5
v -0.7 2.8 -0.7
v -0.6 2.8 -0.7
v 0.7 2.8 -0.7
v 0.8 2.8 -0.7
v 0 2.8 -0.8
v 0.1 2.8 -0.8
v 0 2.8 -0.9
v 0.1 2.8 -0.9
v -0.9 2.9 0.5
v 1 2.9 0.5
v -0.6 2.9 0.3
v 0.7 2.9 0.3
v -0.7 2.9 0.2
v -0.6 2.9 0.2
v 0.7 2.9 0.2
v 0.8 2.9 0.2
v -0.5 2.9 0.1
v 0.5 2.9 0.1
v -0.7 2.9 -0.7
v -0.6 2.9 -0.7
v -0.5 2.9 -0.7
v 0.5 2.9 -0.7
v 0.7 2.9 -0.7
v 0.8 2.9 -0.7
v 0 2.9 -0.8
v 0.1 2.9 -0.8
v 0 2.9 -0.9
v 0.1 2.9 -0.9
v -0.9 2.9 -1.1
v 1 2.9 -1.1
v -0.6 3.1 0.2
v 0.7 3.1 0.2
v -0.5 3.1 0.1
v 0.6 3.1 0.1
v -0.5 3.1 -0.7
v 0.6 3.1 -0.7
v -0.6 3.1 -0.8
v 0.7 3.1 -0.8
v -0.5 3.2 0.1
v 0.6 3.2 0.1
v -0.4 3.2 0
v 0.5 3.2 0
v -0.4 3.2 -0.6
v 0.5 3.2 -0.6
v -0.5 3.2 -0.7
v 0.6 3.2 -0.7
v -0.4 3.3 0
v 0.5 3.3 0
v -0.4 3.3 -0.6
v 0.5 3.3 -0.6
v -0.6 2.1 0.2
v 0.7 2.1 0.2
v -0.5 2.1 0.1
v 0.6 2.1 0.1
v -0.6 2.1 0
v -0.5 2.1 0
v 0.6 2.1 0
v 0.7 2.1 0
v -0.9 3 0.5
v 1 3 0.5
v -0.7 3 0.3
v 0.8 3 0.3
v -0.6 3 0.2
v 0.7 3 0.2
v -0.5 3 0.1
v 0.5 3 0.1
v -0.5 3 -0.7
v 0.5 3 -0.7
v -0.6 3 -0.8
v 0.7 3 -0.8
v -0.7 3 -0.9
v 0.8 3 -0.9
v -0.9 3 -1.1
v 1 3 -1.1
v -0.7 3.1 0.3
v 0.8 3.1 0.3
v -0.6 3.1 0.2
v 0.7 3.1 0.2
v -0.6 3.1 -0.8
v 0.7 3.1 -0.8
v -0.7 3.1 -0.9
v 0.8 3.1 -0.9
v -0.6 3.2 0.2
v 0.7 3.2 0.2
v -0.5 3.2 0.1
v 0.6 3.2 0.1
v -0.5 3.2 -0.7
v 0.6 3.2 -0.7
v -0.6 3.2 -0.8
v 0.7 3.2 -0.8
v -0.5 3.3 0.1
v 0.6 3.3 0.1
v -0.4 3.3 0
v 0.5 3.3 0
v -0.4 3.3 -0.6
v 0.5 3.3 -0.6
v -0.5 3.3 -0.7
v 0.6 3.3 -0.7
v -0.4 3.4 0
v 0.5 3.4 0
v -0.4 3.4 -0.6
v 0.5 3.4 -0.6

# faces
f 3/1/1 2/1/1 1/1/1
f 4/1/1 2/1/1 3/1/1
f 9/2/1 6/2/1 5/2/1
f 10/2/1 8/2/1 7/2/1
f 11/2/1 8/2/1 10/2/1
f 11/2/1 10/2/1 9/2/1
f 13/2/1 9/2/1 5/2/1
f 13/2/1 12/2/1 11/2/1
f 13/2/1 11/2/1 9/2/1
f 14/2/1 12/2/1 13/2/1
f 17/3/1 16/3/1 15/3/1
f 18/3/1 16/3/1 17/3/1
f 22/2/1 20/2/1 19/2/1
f 23/2/1 20/2/1 22/2/1
f 24/2/1 22/2/1 21/2/1
f 25/2/1 22/2/1 24/2/1
f 28/1/1 27/1/1 26/1/1
f 29/1/1 27/1/1 28/1/1
f 32/1/1 31/1/1 30/1/1
f 33/1/1 31/1/1 32/1/1
f 36/1/1 35/1/1 34/1/1
f 37/1/1 35/1/1 36/1/1
f 40/2/1 39/2/1 38/2/1
f 41/2/1 39/2/1 40/2/1
f 44/1/1 43/1/1 42/1/1
f 45/1/1 43/1/1 44/1/1
f 48/1/1 47/1/1 46/1/1
f 49/1/1 47/1/1 48/1/1
f 52/2/1 51/2/1 50/2/1
f 53/2/1 51/2/1 52/2/1
f 56/1/1 55/1/1 54/1/1
f 57/1/1 55/1/1 56/1/1
f 63/2/1 59/2/1 58/2/1
f 63/2/1 60/2/1 59/2/1
f 64/2/1 62/2/1 61/2/1
f 65/2/1 62/2/1 64/2/1
f 65/2/1 64/2/1 63/2/1
f 67/2/1 63/2/1 58/2/1
f 67/2/1 66/2/1 65/2/1
f 67/2/1 65/2/1 63/2/1
f 68/2/1 66/2/1 67/2/1
f 71/3/1 70/3/1 69/3/1
f 72/3/1 70/3/1 71/3/1
f 73/2/2 74/2/2 78/2/2
f 74/2/2 75/2/2 78/2/2
f 76/2/2 77/2/2 79/2/2
f 79/2/2 77/2/2 80/2/2
f 78/2/2 79/2/2 80/2/2
f 73/2/2 78/2/2 82/2/2
f 80/2/2 81/2/2 82/2/2
f 78/2/2 80/2/2 82/2/2
f 82/2/2 81/2/2 83/2/2
f 84/3/2 85/3/2 86/3/2
f 86/3/2 85/3/2 87/3/2
f 88/2/2 89/2/2 90/2/2
f 90/2/2 89/2/2 91/2/2
f 92/1/2 93/1/2 94/1/2
f 94/1/2 93/1/2 95/1/2
f 96/1/2 97/1/2 98/1/2
f 98/1/2 97/1/2 99/1/2
f 100/1/2 101/1/2 102/1/2
f 102/1/2 101/1/2 103/1/2
f 104/2/2 105/2/2 106/2/2
f 106/2/2 105/2/2 107/2/2
f 108/1/2 109/1/2 110/1/2
f 110/1/2 109/1/2 111/1/2
f 112/1/2 113/1/2 114/1/2
f 114/1/2 113/1/2 115/1/2
f 116/2/2 117/2/2 119/2/2
f 119/2/2 117/2/2 120/2/2
f 118/2/2 119/2/2 121/2/2
f 121/2/2 119/2/2 122/2/2
f 123/1/2 124/1/2 125/1/2
f 125/1/2 124/1/2 126/1/2
f 127/2/2 128/2/2 131/2/2
f 129/2/2 130/2/2 132/2/2
f 132/2/2 130/2/2 133/2/2
f 131/2/2 132/2/2 133/2/2
f 127/2/2 131/2/2 135/2/2
f 133/2/2 134/2/2 135/2/2
f 131/2/2 133/2/2 135/2/2
f 135/2/2 134/2/2 136/2/2
f 137/3/2 138/3/2 139/3/2
f 139/3/2 138/3/2 140/3/2
f 141/1/2 142/1/2 143/1/2
f 143/1/2 142/1/2 144/1/2
f 147/1/3 146/1/3 145/1/3
f 148/1/3 146/1/3 147/1/3
f 153/2/3 152/2/3 151/2/3
f 154/2/3 152/2/3 153/2/3
f 155/3/3 150/3/3 149/3/3
f 156/3/3 150/3/3 155/3/3
f 160/2/3 158/2/3 157/2/3
f 161/2/3 158/2/3 160/2/3
f 164/2/3 160/2/3 159/2/3
f 165/2/3 160/2/3 164/2/3
f 167/1/3 163/1/3 162/1/3
f 168/1/3 163/1/3 167/1/3
f 169/2/3 166/2/3 165/2/3
f 170/2/3 166/2/3 169/2/3
f 173/1/3 172/1/3 171/1/3
f 174/1/3 172/1/3 173/1/3
f 177/1/3 176/1/3 175/1/3
f 178/1/3 176/1/3 177/1/3
f 181/2/3 180/2/3 179/2/3
f 182/2/3 180/2/3 181/2/3
f 185/2/3 184/2/3 183/2/3
f 186/2/3 184/2/3 185/2/3
f 189/1/3 188/1/3 187/1/3
f 190/1/3 188/1/3 189/1/3
f 195/1/3 192/1/3 191/1/3
f 196/1/3 192/1/3 195/1/3
f 197/1/3 194/1/3 193/1/3
f 198/1/3 194/1/3 197/1/3
f 203/2/3 202/2/3 201/2/3
f 204/2/3 202/2/3 203/2/3
f 205/3/3 200/3/3 199/3/3
f 206/3/3 200/3/3 205/3/3
f 207/2/4 208/2/4 211/2/4
f 211/2/4 208/2/4 212/2/4
f 209/3/4 210/3/4 213/3/4
f 213/3/4 210/3/4 214/3/4
f 217/1/4 218/1/4 221/1/4
f 221/1/4 218/1/4 222/1/4
f 215/2/4 216/2/4 223/2/4
f 223/2/4 216/2/4 224/2/4
f 219/1/4 220/1/4 225/1/4
f 225/1/4 220/1/4 226/1/4
f 227/2/4 228/2/4 229/2/4
f 229/2/4 228/2/4 230/2/4
f 231/1/4 232/1/4 233/1/4
f 233/1/4 232/1/4 234/1/4
f 235/2/4 236/2/4 237/2/4
f 237/2/4 236/2/4 238/2/4
f 239/2/4 240/2/4 241/2/4
f 241/2/4 240/2/4 242/2/4
f 243/2/4 244/2/4 245/2/4
f 245/2/4 244/2/4 246/2/4
f 247/2/4 248/2/4 249/2/4
f 249/2/4 248/2/4 250/2/4
f 251/2/4 252/2/4 253/2/4
f 253/2/4 252/2/4 254/2/4
f 255/1/4 256/1/4 257/1/4
f 257/1/4 256/1/4 258/1/4
f 259/2/4 260/2/4 261/2/4
f 261/2/4 260/2/4 262/2/4
f 263/1/4 264/1/4 265/1/4
f 265/1/4 264/1/4 266/1/4
f 267/2/4 268/2/4 269/2/4
f 269/2/4 268/2/4 270/2/4
f 271/1/4 272/1/4 273/1/4
f 273/1/4 272/1/4 274/1/4
f 277/2/4 278/2/4 279/2/4
f 279/2/4 278/2/4 280/2/4
f 275/3/4 276/3/4 281/3/4
f 281/3/4 276/3/4 282/3/4
f 283/1/4 284/1/4 285/1/4
f 285/1/4 284/1/4 286/1/4
f 289/2/5 288/2/5 287/2/5
f 290/2/5 288/2/5 289/2/5
f 291/2/5 289/2/5 287/2/5
f 292/2/5 289/2/5 291/2/5
f 293/2/5 288/2/5 290/2/5
f 294/2/5 288/2/5 293/2/5
f 298/2/5 296/2/5 295/2/5
f 299/2/5 296/2/5 298/2/5
f 301/2/5 298/2/5 297/2/5
f 302/2/5 300/2/5 299/2/5
f 303/2/5 301/2/5 297/2/5
f 304/2/5 301/2/5 303/2/5
f 305/2/5 300/2/5 302/2/5
f 306/2/5 300/2/5 305/2/5
f 311/2/5 308/2/5 307/2/5
f 312/2/5 308/2/5 311/2/5
f 313/2/5 310/2/5 309/2/5
f 314/2/5 310/2/5 313/2/5
f 319/2/5 316/2/5 315/2/5
f 320/2/5 316/2/5 319/2/5
f 321/2/5 318/2/5 317/2/5
f 322/2/5 318/2/5 321/2/5
f 327/2/5 324/2/5 323/2/5
f 328/2/5 324/2/5 327/2/5
f 329/2/5 326/2/5 325/2/5
f 330/2/5 326/2/5 329/2/5
f 333/2/5 332/2/5 331/2/5
f 334/2/5 332/2/5 333/2/5
f 337/1/5 336/1/5 335/1/5
f 338/1/5 336/1/5 337/1/5
f 339/1/5 337/1/5 335/1/5
f 340/1/5 337/1/5 339/1/5
f 341/1/5 336/1/5 338/1/5
f 342/1/5 336/1/5 341/1/5
f 343/1/5 341/1/5 340/1/5
f 344/1/5 341/1/5 343/1/5
f 345/1/5 339/1/5 335/1/5
f 346/1/5 343/1/5 340/1/5
f 347/1/5 343/1/5 346/1/5
f 348/1/5 341/1/5 344/1/5
f 349/1/5 341/1/5 348/1/5
f 350/1/5 336/1/5 342/1/5
f 351/1/5 349/1/5 348/1/5
f 351/1/5 350/1/5 349/1/5
f 351/1/5 347/1/5 346/1/5
f 351/1/5 346/1/5 345/1/5
f 351/1/5 348/1/5 347/1/5
f 352/1/5 350/1/5 351/1/5
f 353/1/5 351/1/5 345/1/5
f 354/1/5 350/1/5 352/1/5
f 355/1/5 345/1/5 335/1/5
f 355/1/5 354/1/5 353/1/5
f 355/1/5 353/1/5 345/1/5
f 356/1/5 336/1/5 350/1/5
f 356/1/5 354/1/5 355/1/5
f 356/1/5 350/1/5 354/1/5
f 359/1/5 358/1/5 357/1/5
f 360/1/5 358/1/5 359/1/5
f 361/1/5 359/1/5 357/1/5
f 362/1/5 358/1/5 360/1/5
f 363/1/5 361/1/5 357/1/5
f 363/1/5 362/1/5 361/1/5
f 364/1/5 358/1/5 362/1/5
f 364/1/5 362/1/5 363/1/5
f 367/1/5 366/1/5 365/1/5
f 368/1/5 366/1/5 367/1/5
f 369/1/5 367/1/5 365/1/5
f 370/1/5 366/1/5 368/1/5
f 371/1/5 369/1/5 365/1/5
f 371/1/5 370/1/5 369/1/5
f 372/1/5 366/1/5 370/1/5
f 372/1/5 370/1/5 371/1/5
f 375/1/5 374/1/5 373/1/5
f 376/1/5 374/1/5 375/1/5
f 377/2/6 378/2/6 379/2/6
f 379/2/6 378/2/6 380/2/6
f 377/2/6 379/2/6 381/2/6
f 381/2/6 379/2/6 382/2/6
f 380/2/6 378/2/6 383/2/6
f 383/2/6 378/2/6 384/2/6
f 385/1/6 386/1/6 387/1/6
f 387/1/6 386/1/6 388/1/6
f 389/1/6 390/1/6 391/1/6
f 391/1/6 390/1/6 392/1/6
f 389/1/6 391/1/6 393/1/6
f 392/1/6 390/1/6 394/1/6
f 389/1/6 393/1/6 395/1/6
f 393/1/6 394/1/6 395/1/6
f 394/1/6 390/1/6 396/1/6
f 395/1/6 394/1/6 396/1/6
f 385/1/6 387/1/6 397/1/6
f 388/1/6 386/1/6 398/1/6
f 385/1/6 397/1/6 399/1/6
f 397/1/6 398/1/6 399/1/6
f 398/1/6 386/1/6 400/1/6
f 399/1/6 398/1/6 400/1/6
f 401/3/6 402/3/6 403/3/6
f 403/3/6 402/3/6 404/3/6
f 401/3/6 403/3/6 405/3/6
f 404/3/6 402/3/6 406/3/6
f 401/3/6 405/3/6 407/3/6
f 405/3/6 406/3/6 407/3/6
f 406/3/6 402/3/6 408/3/6
f 407/3/6 406/3/6 408/3/6
f 409/1/6 410/1/6 411/1/6
f 411/1/6 410/1/6 412/1/6
f 409/1/6 411/1/6 413/1/6
f 412/1/6 410/1/6 414/1/6
f 409/1/6 413/1/6 415/1/6
f 413/1/6 414/1/6 415/1/6
f 414/1/6 410/1/6 416/1/6
f 415/1/6 414/1/6 416/1/6
f 417/1/6 418/1/6 419/1/6
f 419/1/6 418/1/6 420/1/6
f 417/1/6 419/1/6 421/1/6
f 420/1/6 418/1/6 422/1/6
f 417/1/6 421/1/6 423/1/6
f 421/1/6 422/1/6 423/1/6
f 422/1/6 418/1/6 424/1/6
f 423/1/6 422/1/6 424/1/6
f 425/1/6 426/1/6 427/1/6
f 427/1/6 426/1/6 428/1/6
