# MagicaVoxel @ Ephtracy

# group
o head_1

# material
mtllib Villager-5-head_1.mtl
usemtl palette

# normals
vn -1 0 0
vn 1 0 0
vn 0 0 1
vn 0 0 -1
vn 0 -1 0
vn 0 1 0

# texcoords
vt 0.0292969 0.5
vt 0.0566406 0.5
vt 0.537109 0.5
vt 0.912109 0.5
vt 0.990234 0.5

# verts
v -0.8 2.2 -0.2
v -0.8 2.2 -0.4
v -0.8 2.6 -0.2
v -0.8 2.6 -0.4
v -0.6 2.1 0.2
v -0.6 2.1 -0.8
v -0.6 2.2 -0.2
v -0.6 2.2 -0.4
v -0.6 2.3 -0.4
v -0.6 2.5 -0.4
v -0.6 2.6 -0.2
v -0.6 2.6 -0.4
v -0.6 3 -0.7
v -0.6 3 -0.8
v -0.6 3.1 0.2
v -0.6 3.1 -0.7
v -0.5 2 0.1
v -0.5 2 -0.8
v -0.5 2.1 0.1
v -0.5 2.1 -0.8
v -0.5 2.7 -0.8
v -0.5 2.7 -0.9
v -0.5 2.9 -0.8
v -0.5 2.9 -0.9
v -0.5 3 -0.7
v -0.5 3 -0.8
v -0.5 3.1 0.1
v -0.5 3.1 -0.7
v -0.5 3.1 -0.8
v -0.5 3.2 0.1
v -0.5 3.2 -0.7
v -0.4 1.9 0
v -0.4 1.9 -0.7
v -0.4 2 0
v -0.4 2 -0.7
v -0.4 3.2 0
v -0.4 3.2 -0.6
v -0.4 3.3 0
v -0.4 3.3 -0.6
v 0.2 2.7 -0.8
v 0.2 2.7 -0.9
v 0.2 2.9 -0.8
v 0.2 2.9 -0.9
v -0.1 2.7 -0.8
v -0.1 2.7 -0.9
v -0.1 2.9 -0.8
v -0.1 2.9 -0.9
v 0.5 1.9 0
v 0.5 1.9 -0.7
v 0.5 2 0
v 0.5 2 -0.7
v 0.5 3.2 0
v 0.5 3.2 -0.6
v 0.5 3.3 0
v 0.5 3.3 -0.6
v 0.6 2 0.1
v 0.6 2 -0.8
v 0.6 2.1 0.1
v 0.6 2.1 -0.8
v 0.6 2.7 -0.8
v 0.6 2.7 -0.9
v 0.6 2.9 -0.8
v 0.6 2.9 -0.9
v 0.6 3 -0.7
v 0.6 3 -0.8
v 0.6 3.1 0.1
v 0.6 3.1 -0.7
v 0.6 3.1 -0.8
v 0.6 3.2 0.1
v 0.6 3.2 -0.7
v 0.7 2.1 0.2
v 0.7 2.1 -0.8
v 0.7 2.2 -0.2
v 0.7 2.2 -0.4
v 0.7 2.3 -0.4
v 0.7 2.5 -0.4
v 0.7 2.6 -0.2
v 0.7 2.6 -0.4
v 0.7 3 -0.7
v 0.7 3 -0.8
v 0.7 3.1 0.2
v 0.7 3.1 -0.7
v 0.9 2.2 -0.2
v 0.9 2.2 -0.4
v 0.9 2.6 -0.2
v 0.9 2.6 -0.4
v -0.6 2.1 0.2
v -0.6 3.1 0.2
v 0.7 2.1 0.2
v 0.7 3.1 0.2
v -0.5 2 0.1
v -0.5 2.1 0.1
v -0.5 3.1 0.1
v -0.5 3.2 0.1
v 0.6 2 0.1
v 0.6 2.1 0.1
v 0.6 3.1 0.1
v 0.6 3.2 0.1
v -0.4 1.9 0
v -0.4 2 0
v -0.4 3.2 0
v -0.4 3.3 0
v 0.5 1.9 0
v 0.5 2 0
v 0.5 3.2 0
v 0.5 3.3 0
v -0.8 2.2 -0.2
v -0.8 2.6 -0.2
v -0.6 2.2 -0.2
v -0.6 2.6 -0.2
v 0.7 2.2 -0.2
v 0.7 2.6 -0.2
v 0.9 2.2 -0.2
v 0.9 2.6 -0.2
v -0.8 2.2 -0.4
v -0.8 2.6 -0.4
v -0.7 2.3 -0.4
v -0.7 2.5 -0.4
v -0.6 2.2 -0.4
v -0.6 2.3 -0.4
v -0.6 2.5 -0.4
v -0.6 2.6 -0.4
v 0.7 2.2 -0.4
v 0.7 2.3 -0.4
v 0.7 2.5 -0.4
v 0.7 2.6 -0.4
v 0.8 2.3 -0.4
v 0.8 2.5 -0.4
v 0.9 2.2 -0.4
v 0.9 2.6 -0.4
v -0.4 3.2 -0.6
v -0.4 3.3 -0.6
v 0.5 3.2 -0.6
v 0.5 3.3 -0.6
v -0.6 3 -0.7
v -0.6 3.1 -0.7
v -0.5 3 -0.7
v -0.5 3.1 -0.7
v -0.5 3.2 -0.7
v -0.4 1.9 -0.7
v -0.4 2 -0.7
v 0.5 1.9 -0.7
v 0.5 2 -0.7
v 0.6 3 -0.7
v 0.6 3.1 -0.7
v 0.6 3.2 -0.7
v 0.7 3 -0.7
v 0.7 3.1 -0.7
v -0.6 2.1 -0.8
v -0.6 3 -0.8
v -0.5 2 -0.8
v -0.5 2.1 -0.8
v -0.5 2.7 -0.8
v -0.5 2.9 -0.8
v -0.5 3 -0.8
v -0.5 3.1 -0.8
v -0.3 2.2 -0.8
v -0.3 2.3 -0.8
v -0.3 2.7 -0.8
v -0.1 2.2 -0.8
v -0.1 2.3 -0.8
v -0.1 2.7 -0.8
v -0.1 2.9 -0.8
v 0.2 2.2 -0.8
v 0.2 2.3 -0.8
v 0.2 2.7 -0.8
v 0.2 2.9 -0.8
v 0.4 2.2 -0.8
v 0.4 2.3 -0.8
v 0.4 2.7 -0.8
v 0.6 2 -0.8
v 0.6 2.1 -0.8
v 0.6 2.7 -0.8
v 0.6 2.9 -0.8
v 0.6 3 -0.8
v 0.6 3.1 -0.8
v 0.7 2.1 -0.8
v 0.7 3 -0.8
v -0.5 2.7 -0.9
v -0.5 2.9 -0.9
v -0.1 2.7 -0.9
v -0.1 2.9 -0.9
v 0.2 2.7 -0.9
v 0.2 2.9 -0.9
v 0.6 2.7 -0.9
v 0.6 2.9 -0.9
v -0.4 1.9 0
v 0.5 1.9 0
v -0.4 1.9 -0.7
v 0.5 1.9 -0.7
v -0.5 2 0.1
v 0.6 2 0.1
v -0.4 2 0
v 0.5 2 0
v -0.4 2 -0.7
v 0.5 2 -0.7
v -0.5 2 -0.8
v 0.6 2 -0.8
v -0.6 2.1 0.2
v 0.7 2.1 0.2
v -0.5 2.1 0.1
v 0.6 2.1 0.1
v -0.6 2.1 -0.8
v -0.5 2.1 -0.8
v 0.6 2.1 -0.8
v 0.7 2.1 -0.8
v -0.8 2.2 -0.2
v -0.6 2.2 -0.2
v 0.7 2.2 -0.2
v 0.9 2.2 -0.2
v -0.8 2.2 -0.4
v -0.6 2.2 -0.4
v 0.7 2.2 -0.4
v 0.9 2.2 -0.4
v -0.5 2.7 -0.8
v -0.3 2.7 -0.8
v -0.1 2.7 -0.8
v 0.2 2.7 -0.8
v 0.4 2.7 -0.8
v 0.6 2.7 -0.8
v -0.5 2.7 -0.9
v -0.1 2.7 -0.9
v 0.2 2.7 -0.9
v 0.6 2.7 -0.9
v -0.8 2.6 -0.2
v -0.6 2.6 -0.2
v 0.7 2.6 -0.2
v 0.9 2.6 -0.2
v -0.8 2.6 -0.4
v -0.6 2.6 -0.4
v 0.7 2.6 -0.4
v 0.9 2.6 -0.4
v -0.5 2.9 -0.8
v -0.1 2.9 -0.8
v 0.2 2.9 -0.8
v 0.6 2.9 -0.8
v -0.5 2.9 -0.9
v -0.1 2.9 -0.9
v 0.2 2.9 -0.9
v 0.6 2.9 -0.9
v -0.6 3 -0.7
v -0.5 3 -0.7
v 0.6 3 -0.7
v 0.7 3 -0.7
v -0.6 3 -0.8
v -0.5 3 -0.8
v 0.6 3 -0.8
v 0.7 3 -0.8
v -0.6 3.1 0.2
v 0.7 3.1 0.2
v -0.5 3.1 0.1
v 0.6 3.1 0.1
v -0.6 3.1 -0.7
v -0.5 3.1 -0.7
v 0.6 3.1 -0.7
v 0.7 3.1 -0.7
v -0.5 3.1 -0.8
v 0.6 3.1 -0.8
v -0.5 3.2 0.1
v 0.6 3.2 0.1
v -0.4 3.2 0
v 0.5 3.2 0
v -0.4 3.2 -0.6
v 0.5 3.2 -0.6
v -0.5 3.2 -0.7
v 0.6 3.2 -0.7
v -0.4 3.3 0
v 0.5 3.3 0
v -0.4 3.3 -0.6
v 0.5 3.3 -0.6

# faces
f 3/1/1 2/1/1 1/1/1
f 4/1/1 2/1/1 3/1/1
f 7/1/1 6/1/1 5/1/1
f 8/1/1 6/1/1 7/1/1
f 9/1/1 6/1/1 8/1/1
f 10/1/1 6/1/1 9/1/1
f 11/1/1 7/1/1 5/1/1
f 12/1/1 6/1/1 10/1/1
f 13/1/1 6/1/1 12/1/1
f 13/1/1 12/1/1 11/1/1
f 14/1/1 6/1/1 13/1/1
f 15/1/1 11/1/1 5/1/1
f 15/1/1 13/1/1 11/1/1
f 16/1/1 13/1/1 15/1/1
f 19/1/1 18/1/1 17/1/1
f 20/1/1 18/1/1 19/1/1
f 23/3/1 22/3/1 21/3/1
f 24/3/1 22/3/1 23/3/1
f 28/1/1 26/1/1 25/1/1
f 29/1/1 26/1/1 28/1/1
f 30/1/1 28/1/1 27/1/1
f 31/1/1 28/1/1 30/1/1
f 34/1/1 33/1/1 32/1/1
f 35/1/1 33/1/1 34/1/1
f 38/1/1 37/1/1 36/1/1
f 39/1/1 37/1/1 38/1/1
f 42/3/1 41/3/1 40/3/1
f 43/3/1 41/3/1 42/3/1
f 44/3/2 45/3/2 46/3/2
f 46/3/2 45/3/2 47/3/2
f 48/1/2 49/1/2 50/1/2
f 50/1/2 49/1/2 51/1/2
f 52/1/2 53/1/2 54/1/2
f 54/1/2 53/1/2 55/1/2
f 56/1/2 57/1/2 58/1/2
f 58/1/2 57/1/2 59/1/2
f 60/3/2 61/3/2 62/3/2
f 62/3/2 61/3/2 63/3/2
f 64/1/2 65/1/2 67/1/2
f 67/1/2 65/1/2 68/1/2
f 66/1/2 67/1/2 69/1/2
f 69/1/2 67/1/2 70/1/2
f 71/1/2 72/1/2 73/1/2
f 73/1/2 72/1/2 74/1/2
f 74/1/2 72/1/2 75/1/2
f 75/1/2 72/1/2 76/1/2
f 71/1/2 73/1/2 77/1/2
f 76/1/2 72/1/2 78/1/2
f 78/1/2 72/1/2 79/1/2
f 77/1/2 78/1/2 79/1/2
f 79/1/2 72/1/2 80/1/2
f 71/1/2 77/1/2 81/1/2
f 77/1/2 79/1/2 81/1/2
f 81/1/2 79/1/2 82/1/2
f 83/1/2 84/1/2 85/1/2
f 85/1/2 84/1/2 86/1/2
f 89/1/3 88/1/3 87/1/3
f 90/1/3 88/1/3 89/1/3
f 95/1/3 92/1/3 91/1/3
f 96/1/3 92/1/3 95/1/3
f 97/1/3 94/1/3 93/1/3
f 98/1/3 94/1/3 97/1/3
f 103/1/3 100/1/3 99/1/3
f 104/1/3 100/1/3 103/1/3
f 105/1/3 102/1/3 101/1/3
f 106/1/3 102/1/3 105/1/3
f 109/1/3 108/1/3 107/1/3
f 110/1/3 108/1/3 109/1/3
f 113/1/3 112/1/3 111/1/3
f 114/1/3 112/1/3 113/1/3
f 115/1/4 116/1/4 117/1/4
f 117/1/4 116/1/4 118/1/4
f 115/1/4 117/1/4 119/1/4
f 117/2/4 118/2/4 120/2/4
f 119/1/4 117/1/4 120/1/4
f 118/1/4 116/1/4 121/1/4
f 120/2/4 118/2/4 121/2/4
f 121/1/4 116/1/4 122/1/4
f 123/1/4 124/1/4 127/1/4
f 124/2/4 125/2/4 127/2/4
f 125/1/4 126/1/4 128/1/4
f 127/2/4 125/2/4 128/2/4
f 123/1/4 127/1/4 129/1/4
f 127/1/4 128/1/4 129/1/4
f 128/1/4 126/1/4 130/1/4
f 129/1/4 128/1/4 130/1/4
f 131/1/4 132/1/4 133/1/4
f 133/1/4 132/1/4 134/1/4
f 135/1/4 136/1/4 137/1/4
f 137/1/4 136/1/4 138/1/4
f 140/1/4 141/1/4 142/1/4
f 142/1/4 141/1/4 143/1/4
f 138/1/4 139/1/4 145/1/4
f 145/1/4 139/1/4 146/1/4
f 144/1/4 145/1/4 147/1/4
f 147/1/4 145/1/4 148/1/4
f 149/1/4 150/1/4 152/1/4
f 152/1/4 150/1/4 153/1/4
f 153/1/4 150/1/4 154/1/4
f 154/1/4 150/1/4 155/1/4
f 151/1/4 152/1/4 157/1/4
f 152/1/4 153/1/4 157/1/4
f 157/1/4 153/1/4 158/1/4
f 158/1/4 153/1/4 159/1/4
f 151/1/4 157/1/4 160/1/4
f 157/4/4 158/4/4 160/4/4
f 158/5/4 159/5/4 161/5/4
f 160/4/4 158/4/4 161/4/4
f 161/5/4 159/5/4 162/5/4
f 155/1/4 156/1/4 163/1/4
f 154/1/4 155/1/4 163/1/4
f 161/1/4 162/1/4 164/1/4
f 162/1/4 163/1/4 164/1/4
f 160/1/4 161/1/4 164/1/4
f 151/1/4 160/1/4 164/1/4
f 164/1/4 163/1/4 165/1/4
f 165/1/4 163/1/4 166/1/4
f 163/1/4 156/1/4 167/1/4
f 166/1/4 163/1/4 167/1/4
f 151/1/4 164/1/4 168/1/4
f 164/4/4 165/4/4 168/4/4
f 165/5/4 166/5/4 169/5/4
f 168/4/4 165/4/4 169/4/4
f 169/5/4 166/5/4 170/5/4
f 151/1/4 168/1/4 171/1/4
f 168/1/4 169/1/4 171/1/4
f 169/1/4 170/1/4 171/1/4
f 171/1/4 170/1/4 172/1/4
f 172/1/4 170/1/4 173/1/4
f 167/1/4 156/1/4 174/1/4
f 174/1/4 156/1/4 175/1/4
f 175/1/4 156/1/4 176/1/4
f 172/1/4 173/1/4 177/1/4
f 174/1/4 175/1/4 177/1/4
f 173/1/4 174/1/4 177/1/4
f 177/1/4 175/1/4 178/1/4
f 179/3/4 180/3/4 181/3/4
f 181/3/4 180/3/4 182/3/4
f 183/3/4 184/3/4 185/3/4
f 185/3/4 184/3/4 186/3/4
f 189/1/5 188/1/5 187/1/5
f 190/1/5 188/1/5 189/1/5
f 193/1/5 192/1/5 191/1/5
f 194/1/5 192/1/5 193/1/5
f 195/1/5 193/1/5 191/1/5
f 196/1/5 192/1/5 194/1/5
f 197/1/5 195/1/5 191/1/5
f 197/1/5 196/1/5 195/1/5
f 198/1/5 192/1/5 196/1/5
f 198/1/5 196/1/5 197/1/5
f 201/1/5 200/1/5 199/1/5
f 202/1/5 200/1/5 201/1/5
f 203/1/5 201/1/5 199/1/5
f 204/1/5 201/1/5 203/1/5
f 205/1/5 200/1/5 202/1/5
f 206/1/5 200/1/5 205/1/5
f 211/1/5 208/1/5 207/1/5
f 212/1/5 208/1/5 211/1/5
f 213/1/5 210/1/5 209/1/5
f 214/1/5 210/1/5 213/1/5
f 221/3/5 216/3/5 215/3/5
f 221/3/5 217/3/5 216/3/5
f 222/3/5 217/3/5 221/3/5
f 223/3/5 220/3/5 219/3/5
f 223/3/5 219/3/5 218/3/5
f 224/3/5 220/3/5 223/3/5
f 225/1/6 226/1/6 229/1/6
f 229/1/6 226/1/6 230/1/6
f 227/1/6 228/1/6 231/1/6
f 231/1/6 228/1/6 232/1/6
f 233/3/6 234/3/6 237/3/6
f 237/3/6 234/3/6 238/3/6
f 235/3/6 236/3/6 239/3/6
f 239/3/6 236/3/6 240/3/6
f 241/1/6 242/1/6 245/1/6
f 245/1/6 242/1/6 246/1/6
f 243/1/6 244/1/6 247/1/6
f 247/1/6 244/1/6 248/1/6
f 249/1/6 250/1/6 251/1/6
f 251/1/6 250/1/6 252/1/6
f 249/1/6 251/1/6 253/1/6
f 253/1/6 251/1/6 254/1/6
f 252/1/6 250/1/6 255/1/6
f 255/1/6 250/1/6 256/1/6
f 254/1/6 255/1/6 257/1/6
f 257/1/6 255/1/6 258/1/6
f 259/1/6 260/1/6 261/1/6
f 261/1/6 260/1/6 262/1/6
f 259/1/6 261/1/6 263/1/6
f 262/1/6 260/1/6 264/1/6
f 259/1/6 263/1/6 265/1/6
f 263/1/6 264/1/6 265/1/6
f 264/1/6 260/1/6 266/1/6
f 265/1/6 264/1/6 266/1/6
f 267/1/6 268/1/6 269/1/6
f 269/1/6 268/1/6 270/1/6
