# MagicaVoxel @ Ephtracy

# group
o legs_1

# material
mtllib Villager-7-legs_1.mtl
usemtl palette

# normals
vn -1 0 0
vn 1 0 0
vn 0 0 1
vn 0 0 -1
vn 0 -1 0
vn 0 1 0

# texcoords
vt 0.0214844 0.5
vt 0.861328 0.5
vt 0.873047 0.5
vt 0.904297 0.5
vt 0.994141 0.5

# verts
v -0.5 0 0
v -0.5 0 -0.8
v -0.5 0.1 0
v -0.5 0.1 -0.8
v -0.5 0.2 -0.7
v -0.5 0.2 -0.8
v -0.5 0.3 -0.6
v -0.5 0.3 -0.7
v -0.5 0.4 0
v -0.5 0.4 -0.1
v -0.5 0.4 -0.5
v -0.5 0.4 -0.6
v -0.5 0.7 -0.1
v -0.5 0.7 -0.2
v -0.5 0.7 -0.4
v -0.5 0.7 -0.5
v -0.5 0.8 -0.2
v -0.5 0.8 -0.4
v -0.4 0 0.1
v -0.4 0 0
v -0.4 0.1 0.1
v -0.4 0.1 0
v -0.4 0.4 0.1
v -0.4 0.4 0
v -0.4 0.5 0
v -0.4 0.5 -0.1
v -0.4 0.5 -0.5
v -0.4 0.5 -0.6
v -0.4 0.7 0
v -0.4 0.7 -0.1
v -0.4 0.7 -0.2
v -0.4 0.7 -0.4
v -0.4 0.7 -0.5
v -0.4 0.7 -0.6
v -0.4 0.8 -0.2
v -0.4 0.8 -0.4
v -0.4 0.9 0
v -0.4 0.9 -0.6
v -0.3 0.4 0
v -0.3 0.4 -0.1
v -0.3 0.4 -0.5
v -0.3 0.4 -0.6
v -0.3 0.5 0
v -0.3 0.5 -0.1
v -0.3 0.5 -0.5
v -0.3 0.5 -0.6
v 0.1 0 0
v 0.1 0 -0.8
v 0.1 0.1 0
v 0.1 0.1 -0.8
v 0.1 0.2 -0.7
v 0.1 0.2 -0.8
v 0.1 0.3 -0.6
v 0.1 0.3 -0.7
v 0.1 0.4 0
v 0.1 0.4 -0.1
v 0.1 0.4 -0.5
v 0.1 0.4 -0.6
v 0.1 0.5 -0.1
v 0.1 0.5 -0.5
v 0.2 0 0.1
v 0.2 0 0
v 0.2 0.1 0.1
v 0.2 0.1 0
v 0.2 0.4 0.1
v 0.2 0.4 0
v 0.2 0.4 -0.1
v 0.2 0.4 -0.5
v 0.2 0.4 -0.6
v 0.2 0.5 0
v 0.2 0.5 -0.1
v 0.2 0.5 -0.5
v 0.2 0.5 -0.6
v -0.1 0 0.1
v -0.1 0 0
v -0.1 0.1 0.1
v -0.1 0.1 0
v -0.1 0.4 0.1
v -0.1 0.4 0
v -0.1 0.4 -0.1
v -0.1 0.4 -0.5
v -0.1 0.4 -0.6
v -0.1 0.5 0
v -0.1 0.5 -0.1
v -0.1 0.5 -0.5
v -0.1 0.5 -0.6
v 0 0 0
v 0 0 -0.8
v 0 0.1 0
v 0 0.1 -0.8
v 0 0.2 -0.7
v 0 0.2 -0.8
v 0 0.3 -0.6
v 0 0.3 -0.7
v 0 0.4 0
v 0 0.4 -0.1
v 0 0.4 -0.5
v 0 0.4 -0.6
v 0 0.5 -0.1
v 0 0.5 -0.5
v 0.4 0.4 0
v 0.4 0.4 -0.1
v 0.4 0.4 -0.5
v 0.4 0.4 -0.6
v 0.4 0.5 0
v 0.4 0.5 -0.1
v 0.4 0.5 -0.5
v 0.4 0.5 -0.6
v 0.5 0 0.1
v 0.5 0 0
v 0.5 0.1 0.1
v 0.5 0.1 0
v 0.5 0.4 0.1
v 0.5 0.4 0
v 0.5 0.5 0
v 0.5 0.5 -0.1
v 0.5 0.5 -0.5
v 0.5 0.5 -0.6
v 0.5 0.7 0
v 0.5 0.7 -0.1
v 0.5 0.7 -0.2
v 0.5 0.7 -0.4
v 0.5 0.7 -0.5
v 0.5 0.7 -0.6
v 0.5 0.8 -0.2
v 0.5 0.8 -0.4
v 0.5 0.9 0
v 0.5 0.9 -0.6
v 0.6 0 0
v 0.6 0 -0.8
v 0.6 0.1 0
v 0.6 0.1 -0.8
v 0.6 0.2 -0.7
v 0.6 0.2 -0.8
v 0.6 0.3 -0.6
v 0.6 0.3 -0.7
v 0.6 0.4 0
v 0.6 0.4 -0.1
v 0.6 0.4 -0.5
v 0.6 0.4 -0.6
v 0.6 0.7 -0.1
v 0.6 0.7 -0.2
v 0.6 0.7 -0.4
v 0.6 0.7 -0.5
v 0.6 0.8 -0.2
v 0.6 0.8 -0.4
v -0.4 0 0.1
v -0.4 0.1 0.1
v -0.4 0.4 0.1
v -0.1 0 0.1
v -0.1 0.1 0.1
v -0.1 0.4 0.1
v 0.2 0 0.1
v 0.2 0.1 0.1
v 0.2 0.4 0.1
v 0.5 0 0.1
v 0.5 0.1 0.1
v 0.5 0.4 0.1
v -0.5 0 0
v -0.5 0.1 0
v -0.5 0.4 0
v -0.4 0 0
v -0.4 0.1 0
v -0.4 0.4 0
v -0.4 0.5 0
v -0.4 0.7 0
v -0.4 0.9 0
v -0.3 0.4 0
v -0.3 0.5 0
v -0.1 0 0
v -0.1 0.1 0
v -0.1 0.4 0
v -0.1 0.5 0
v 0 0 0
v 0 0.1 0
v 0 0.4 0
v 0.1 0 0
v 0.1 0.1 0
v 0.1 0.4 0
v 0.2 0 0
v 0.2 0.1 0
v 0.2 0.4 0
v 0.2 0.5 0
v 0.4 0.4 0
v 0.4 0.5 0
v 0.5 0 0
v 0.5 0.1 0
v 0.5 0.4 0
v 0.5 0.5 0
v 0.5 0.7 0
v 0.5 0.9 0
v 0.6 0 0
v 0.6 0.1 0
v 0.6 0.4 0
v -0.5 0.4 -0.1
v -0.5 0.7 -0.1
v -0.4 0.5 -0.1
v -0.4 0.7 -0.1
v -0.3 0.4 -0.1
v -0.3 0.5 -0.1
v -0.1 0.4 -0.1
v -0.1 0.5 -0.1
v 0 0.4 -0.1
v 0 0.5 -0.1
v 0.1 0.4 -0.1
v 0.1 0.5 -0.1
v 0.2 0.4 -0.1
v 0.2 0.5 -0.1
v 0.4 0.4 -0.1
v 0.4 0.5 -0.1
v 0.5 0.5 -0.1
v 0.5 0.7 -0.1
v 0.6 0.4 -0.1
v 0.6 0.7 -0.1
v -0.5 0.7 -0.2
v -0.5 0.8 -0.2
v -0.4 0.7 -0.2
v -0.4 0.8 -0.2
v 0.5 0.7 -0.2
v 0.5 0.8 -0.2
v 0.6 0.7 -0.2
v 0.6 0.8 -0.2
v -0.5 0.7 -0.4
v -0.5 0.8 -0.4
v -0.4 0.7 -0.4
v -0.4 0.8 -0.4
v 0.5 0.7 -0.4
v 0.5 0.8 -0.4
v 0.6 0.7 -0.4
v 0.6 0.8 -0.4
v -0.5 0.4 -0.5
v -0.5 0.7 -0.5
v -0.4 0.5 -0.5
v -0.4 0.7 -0.5
v -0.3 0.4 -0.5
v -0.3 0.5 -0.5
v -0.1 0.4 -0.5
v -0.1 0.5 -0.5
v 0 0.4 -0.5
v 0 0.5 -0.5
v 0.1 0.4 -0.5
v 0.1 0.5 -0.5
v 0.2 0.4 -0.5
v 0.2 0.5 -0.5
v 0.4 0.4 -0.5
v 0.4 0.5 -0.5
v 0.5 0.5 -0.5
v 0.5 0.7 -0.5
v 0.6 0.4 -0.5
v 0.6 0.7 -0.5
v -0.5 0.3 -0.6
v -0.5 0.4 -0.6
v -0.4 0.5 -0.6
v -0.4 0.7 -0.6
v -0.4 0.9 -0.6
v -0.3 0.4 -0.6
v -0.3 0.5 -0.6
v -0.1 0.4 -0.6
v -0.1 0.5 -0.6
v -0.1 0.7 -0.6
v -0.1 0.8 -0.6
v -0.1 0.9 -0.6
v 0 0.3 -0.6
v 0 0.4 -0.6
v 0.1 0.3 -0.6
v 0.1 0.4 -0.6
v 0.2 0.4 -0.6
v 0.2 0.5 -0.6
v 0.2 0.7 -0.6
v 0.2 0.8 -0.6
v 0.2 0.9 -0.6
v 0.4 0.4 -0.6
v 0.4 0.5 -0.6
v 0.5 0.5 -0.6
v 0.5 0.7 -0.6
v 0.5 0.9 -0.6
v 0.6 0.3 -0.6
v 0.6 0.4 -0.6
v -0.5 0.2 -0.7
v -0.5 0.3 -0.7
v 0 0.2 -0.7
v 0 0.3 -0.7
v 0.1 0.2 -0.7
v 0.1 0.3 -0.7
v 0.6 0.2 -0.7
v 0.6 0.3 -0.7
v -0.5 0 -0.8
v -0.5 0.1 -0.8
v -0.5 0.2 -0.8
v 0 0 -0.8
v 0 0.1 -0.8
v 0 0.2 -0.8
v 0.1 0 -0.8
v 0.1 0.1 -0.8
v 0.1 0.2 -0.8
v 0.6 0 -0.8
v 0.6 0.1 -0.8
v 0.6 0.2 -0.8
v -0.4 0 0.1
v -0.1 0 0.1
v 0.2 0 0.1
v 0.5 0 0.1
v -0.5 0 0
v -0.4 0 0
v -0.1 0 0
v 0 0 0
v 0.1 0 0
v 0.2 0 0
v 0.5 0 0
v 0.6 0 0
v -0.5 0 -0.8
v 0 0 -0.8
v 0.1 0 -0.8
v 0.6 0 -0.8
v -0.4 0.5 0
v -0.3 0.5 0
v -0.1 0.5 0
v 0.2 0.5 0
v 0.4 0.5 0
v 0.5 0.5 0
v -0.4 0.5 -0.1
v -0.3 0.5 -0.1
v -0.1 0.5 -0.1
v 0 0.5 -0.1
v 0.1 0.5 -0.1
v 0.2 0.5 -0.1
v 0.4 0.5 -0.1
v 0.5 0.5 -0.1
v -0.4 0.5 -0.5
v -0.3 0.5 -0.5
v -0.1 0.5 -0.5
v 0 0.5 -0.5
v 0.1 0.5 -0.5
v 0.2 0.5 -0.5
v 0.4 0.5 -0.5
v 0.5 0.5 -0.5
v -0.4 0.5 -0.6
v -0.3 0.5 -0.6
v -0.1 0.5 -0.6
v 0.2 0.5 -0.6
v 0.4 0.5 -0.6
v 0.5 0.5 -0.6
v -0.5 0.2 -0.7
v 0 0.2 -0.7
v 0.1 0.2 -0.7
v 0.6 0.2 -0.7
v -0.5 0.2 -0.8
v 0 0.2 -0.8
v 0.1 0.2 -0.8
v 0.6 0.2 -0.8
v -0.5 0.3 -0.6
v 0 0.3 -0.6
v 0.1 0.3 -0.6
v 0.6 0.3 -0.6
v -0.5 0.3 -0.7
v 0 0.3 -0.7
v 0.1 0.3 -0.7
v 0.6 0.3 -0.7
v -0.4 0.4 0.1
v -0.1 0.4 0.1
v 0.2 0.4 0.1
v 0.5 0.4 0.1
v -0.5 0.4 0
v -0.4 0.4 0
v -0.3 0.4 0
v -0.1 0.4 0
v 0 0.4 0
v 0.1 0.4 0
v 0.2 0.4 0
v 0.4 0.4 0
v 0.5 0.4 0
v 0.6 0.4 0
v -0.5 0.4 -0.1
v -0.3 0.4 -0.1
v -0.1 0.4 -0.1
v 0 0.4 -0.1
v 0.1 0.4 -0.1
v 0.2 0.4 -0.1
v 0.4 0.4 -0.1
v 0.6 0.4 -0.1
v -0.5 0.4 -0.5
v -0.3 0.4 -0.5
v -0.1 0.4 -0.5
v 0 0.4 -0.5
v 0.1 0.4 -0.5
v 0.2 0.4 -0.5
v 0.4 0.4 -0.5
v 0.6 0.4 -0.5
v -0.5 0.4 -0.6
v -0.3 0.4 -0.6
v -0.1 0.4 -0.6
v 0 0.4 -0.6
v 0.1 0.4 -0.6
v 0.2 0.4 -0.6
v 0.4 0.4 -0.6
v 0.6 0.4 -0.6
v -0.5 0.7 -0.1
v -0.4 0.7 -0.1
v 0.5 0.7 -0.1
v 0.6 0.7 -0.1
v -0.5 0.7 -0.2
v -0.4 0.7 -0.2
v 0.5 0.7 -0.2
v 0.6 0.7 -0.2
v -0.5 0.7 -0.4
v -0.4 0.7 -0.4
v 0.5 0.7 -0.4
v 0.6 0.7 -0.4
v -0.5 0.7 -0.5
v -0.4 0.7 -0.5
v 0.5 0.7 -0.5
v 0.6 0.7 -0.5
v -0.5 0.8 -0.2
v -0.4 0.8 -0.2
v 0.5 0.8 -0.2
v 0.6 0.8 -0.2
v -0.5 0.8 -0.4
v -0.4 0.8 -0.4
v 0.5 0.8 -0.4
v 0.6 0.8 -0.4
v -0.4 0.9 0
v 0.5 0.9 0
v -0.3 0.9 -0.1
v 0.4 0.9 -0.1
v -0.3 0.9 -0.5
v -0.1 0.9 -0.5
v 0.2 0.9 -0.5
v 0.4 0.9 -0.5
v -0.4 0.9 -0.6
v -0.1 0.9 -0.6
v 0.2 0.9 -0.6
v 0.5 0.9 -0.6

# faces
f 3/2/1 2/2/1 1/2/1
f 4/2/1 2/2/1 3/2/1
f 5/3/1 4/3/1 3/3/1
f 6/3/1 4/3/1 5/3/1
f 7/3/1 5/3/1 3/3/1
f 8/3/1 5/3/1 7/3/1
f 9/3/1 7/3/1 3/3/1
f 10/3/1 7/3/1 9/3/1
f 11/3/1 7/3/1 10/3/1
f 12/3/1 7/3/1 11/3/1
f 13/4/1 11/4/1 10/4/1
f 14/4/1 11/4/1 13/4/1
f 15/4/1 11/4/1 14/4/1
f 16/4/1 11/4/1 15/4/1
f 17/5/1 15/5/1 14/5/1
f 18/5/1 15/5/1 17/5/1
f 21/2/1 20/2/1 19/2/1
f 22/2/1 20/2/1 21/2/1
f 23/3/1 22/3/1 21/3/1
f 24/3/1 22/3/1 23/3/1
f 29/4/1 26/4/1 25/4/1
f 30/4/1 26/4/1 29/4/1
f 33/4/1 28/4/1 27/4/1
f 34/4/1 28/4/1 33/4/1
f 35/5/1 31/5/1 30/5/1
f 35/5/1 30/5/1 29/5/1
f 36/5/1 34/5/1 33/5/1
f 36/5/1 33/5/1 32/5/1
f 37/5/1 35/5/1 29/5/1
f 37/5/1 36/5/1 35/5/1
f 38/5/1 34/5/1 36/5/1
f 38/5/1 36/5/1 37/5/1
f 43/4/1 40/4/1 39/4/1
f 44/4/1 40/4/1 43/4/1
f 45/4/1 42/4/1 41/4/1
f 46/4/1 42/4/1 45/4/1
f 49/2/1 48/2/1 47/2/1
f 50/2/1 48/2/1 49/2/1
f 51/3/1 50/3/1 49/3/1
f 52/3/1 50/3/1 51/3/1
f 53/3/1 51/3/1 49/3/1
f 54/3/1 51/3/1 53/3/1
f 55/3/1 53/3/1 49/3/1
f 56/3/1 53/3/1 55/3/1
f 57/3/1 53/3/1 56/3/1
f 58/3/1 53/3/1 57/3/1
f 59/4/1 57/4/1 56/4/1
f 60/4/1 57/4/1 59/4/1
f 63/2/1 62/2/1 61/2/1
f 64/2/1 62/2/1 63/2/1
f 65/3/1 64/3/1 63/3/1
f 66/3/1 64/3/1 65/3/1
f 70/4/1 67/4/1 66/4/1
f 71/4/1 67/4/1 70/4/1
f 72/4/1 69/4/1 68/4/1
f 73/4/1 69/4/1 72/4/1
f 74/2/2 75/2/2 76/2/2
f 76/2/2 75/2/2 77/2/2
f 76/3/2 77/3/2 78/3/2
f 78/3/2 77/3/2 79/3/2
f 79/4/2 80/4/2 83/4/2
f 83/4/2 80/4/2 84/4/2
f 81/4/2 82/4/2 85/4/2
f 85/4/2 82/4/2 86/4/2
f 87/2/2 88/2/2 89/2/2
f 89/2/2 88/2/2 90/2/2
f 89/3/2 90/3/2 91/3/2
f 91/3/2 90/3/2 92/3/2
f 89/3/2 91/3/2 93/3/2
f 93/3/2 91/3/2 94/3/2
f 89/3/2 93/3/2 95/3/2
f 95/3/2 93/3/2 96/3/2
f 96/3/2 93/3/2 97/3/2
f 97/3/2 93/3/2 98/3/2
f 96/4/2 97/4/2 99/4/2
f 99/4/2 97/4/2 100/4/2
f 101/4/2 102/4/2 105/4/2
f 105/4/2 102/4/2 106/4/2
f 103/4/2 104/4/2 107/4/2
f 107/4/2 104/4/2 108/4/2
f 109/2/2 110/2/2 111/2/2
f 111/2/2 110/2/2 112/2/2
f 111/3/2 112/3/2 113/3/2
f 113/3/2 112/3/2 114/3/2
f 115/4/2 116/4/2 119/4/2
f 119/4/2 116/4/2 120/4/2
f 117/4/2 118/4/2 123/4/2
f 123/4/2 118/4/2 124/4/2
f 120/5/2 121/5/2 125/5/2
f 119/5/2 120/5/2 125/5/2
f 123/5/2 124/5/2 126/5/2
f 122/5/2 123/5/2 126/5/2
f 119/5/2 125/5/2 127/5/2
f 125/5/2 126/5/2 127/5/2
f 126/5/2 124/5/2 128/5/2
f 127/5/2 126/5/2 128/5/2
f 129/2/2 130/2/2 131/2/2
f 131/2/2 130/2/2 132/2/2
f 131/3/2 132/3/2 133/3/2
f 133/3/2 132/3/2 134/3/2
f 131/3/2 133/3/2 135/3/2
f 135/3/2 133/3/2 136/3/2
f 131/3/2 135/3/2 137/3/2
f 137/3/2 135/3/2 138/3/2
f 138/3/2 135/3/2 139/3/2
f 139/3/2 135/3/2 140/3/2
f 138/4/2 139/4/2 141/4/2
f 141/4/2 139/4/2 142/4/2
f 142/4/2 139/4/2 143/4/2
f 143/4/2 139/4/2 144/4/2
f 142/5/2 143/5/2 145/5/2
f 145/5/2 143/5/2 146/5/2
f 150/2/3 148/2/3 147/2/3
f 151/3/3 149/3/3 148/3/3
f 151/2/3 148/2/3 150/2/3
f 152/3/3 149/3/3 151/3/3
f 156/2/3 154/2/3 153/2/3
f 157/3/3 155/3/3 154/3/3
f 157/2/3 154/2/3 156/2/3
f 158/3/3 155/3/3 157/3/3
f 162/2/3 160/2/3 159/2/3
f 163/3/3 161/3/3 160/3/3
f 163/2/3 160/2/3 162/2/3
f 164/3/3 161/3/3 163/3/3
f 169/4/3 166/4/3 165/4/3
f 172/4/3 169/4/3 168/4/3
f 173/4/3 166/4/3 169/4/3
f 173/4/3 169/4/3 172/4/3
f 174/2/3 171/2/3 170/2/3
f 175/3/3 172/3/3 171/3/3
f 175/2/3 171/2/3 174/2/3
f 176/3/3 172/3/3 175/3/3
f 180/2/3 178/2/3 177/2/3
f 181/3/3 179/3/3 178/3/3
f 181/2/3 178/2/3 180/2/3
f 182/3/3 179/3/3 181/3/3
f 183/4/3 166/4/3 173/4/3
f 184/4/3 183/4/3 182/4/3
f 185/4/3 166/4/3 183/4/3
f 185/4/3 183/4/3 184/4/3
f 189/4/3 166/4/3 185/4/3
f 190/5/3 167/5/3 166/5/3
f 190/4/3 166/4/3 189/4/3
f 191/5/3 167/5/3 190/5/3
f 192/2/3 187/2/3 186/2/3
f 193/3/3 188/3/3 187/3/3
f 193/2/3 187/2/3 192/2/3
f 194/3/3 188/3/3 193/3/3
f 197/4/3 196/4/3 195/4/3
f 198/4/3 196/4/3 197/4/3
f 199/4/3 197/4/3 195/4/3
f 200/4/3 197/4/3 199/4/3
f 203/4/3 202/4/3 201/4/3
f 204/4/3 202/4/3 203/4/3
f 207/4/3 206/4/3 205/4/3
f 208/4/3 206/4/3 207/4/3
f 211/4/3 210/4/3 209/4/3
f 213/4/3 211/4/3 209/4/3
f 213/4/3 212/4/3 211/4/3
f 214/4/3 212/4/3 213/4/3
f 217/5/3 216/5/3 215/5/3
f 218/5/3 216/5/3 217/5/3
f 221/5/3 220/5/3 219/5/3
f 222/5/3 220/5/3 221/5/3
f 223/5/4 224/5/4 225/5/4
f 225/5/4 224/5/4 226/5/4
f 227/5/4 228/5/4 229/5/4
f 229/5/4 228/5/4 230/5/4
f 231/4/4 232/4/4 233/4/4
f 233/4/4 232/4/4 234/4/4
f 231/4/4 233/4/4 235/4/4
f 235/4/4 233/4/4 236/4/4
f 237/4/4 238/4/4 239/4/4
f 239/4/4 238/4/4 240/4/4
f 241/4/4 242/4/4 243/4/4
f 243/4/4 242/4/4 244/4/4
f 245/4/4 246/4/4 247/4/4
f 245/4/4 247/4/4 249/4/4
f 247/4/4 248/4/4 249/4/4
f 249/4/4 248/4/4 250/4/4
f 251/3/4 252/3/4 256/3/4
f 253/4/4 254/4/4 257/4/4
f 251/3/4 256/3/4 258/3/4
f 256/4/4 257/4/4 258/4/4
f 257/4/4 254/4/4 259/4/4
f 258/4/4 257/4/4 259/4/4
f 254/5/4 255/5/4 260/5/4
f 259/4/4 254/4/4 260/4/4
f 260/5/4 255/5/4 261/5/4
f 261/5/4 255/5/4 262/5/4
f 251/3/4 258/3/4 263/3/4
f 263/3/4 258/3/4 264/3/4
f 265/3/4 266/3/4 267/3/4
f 259/4/4 260/4/4 268/4/4
f 260/3/4 261/3/4 269/3/4
f 268/4/4 260/4/4 269/4/4
f 261/1/4 262/1/4 270/1/4
f 269/3/4 261/3/4 270/3/4
f 270/1/4 262/1/4 271/1/4
f 268/4/4 269/4/4 272/4/4
f 265/3/4 267/3/4 272/3/4
f 267/4/4 268/4/4 272/4/4
f 272/4/4 269/4/4 273/4/4
f 273/4/4 269/4/4 274/4/4
f 270/5/4 271/5/4 275/5/4
f 274/4/4 269/4/4 275/4/4
f 269/5/4 270/5/4 275/5/4
f 275/5/4 271/5/4 276/5/4
f 265/3/4 272/3/4 277/3/4
f 277/3/4 272/3/4 278/3/4
f 279/3/4 280/3/4 281/3/4
f 281/3/4 280/3/4 282/3/4
f 283/3/4 284/3/4 285/3/4
f 285/3/4 284/3/4 286/3/4
f 287/2/4 288/2/4 290/2/4
f 288/3/4 289/3/4 291/3/4
f 290/2/4 288/2/4 291/2/4
f 291/3/4 289/3/4 292/3/4
f 293/2/4 294/2/4 296/2/4
f 294/3/4 295/3/4 297/3/4
f 296/2/4 294/2/4 297/2/4
f 297/3/4 295/3/4 298/3/4
f 304/2/5 300/2/5 299/2/5
f 305/2/5 300/2/5 304/2/5
f 308/2/5 302/2/5 301/2/5
f 309/2/5 302/2/5 308/2/5
f 311/2/5 306/2/5 305/2/5
f 311/2/5 304/2/5 303/2/5
f 311/2/5 305/2/5 304/2/5
f 312/2/5 306/2/5 311/2/5
f 313/2/5 310/2/5 309/2/5
f 313/2/5 309/2/5 308/2/5
f 313/2/5 308/2/5 307/2/5
f 314/2/5 310/2/5 313/2/5
f 321/4/5 316/4/5 315/4/5
f 322/4/5 316/4/5 321/4/5
f 323/4/5 318/4/5 317/4/5
f 324/4/5 318/4/5 323/4/5
f 325/4/5 318/4/5 324/4/5
f 326/4/5 318/4/5 325/4/5
f 327/4/5 320/4/5 319/4/5
f 328/4/5 320/4/5 327/4/5
f 332/4/5 325/4/5 324/4/5
f 333/4/5 325/4/5 332/4/5
f 337/4/5 330/4/5 329/4/5
f 338/4/5 330/4/5 337/4/5
f 339/4/5 332/4/5 331/4/5
f 339/4/5 333/4/5 332/4/5
f 339/4/5 334/4/5 333/4/5
f 340/4/5 334/4/5 339/4/5
f 341/4/5 336/4/5 335/4/5
f 342/4/5 336/4/5 341/4/5
f 343/3/6 344/3/6 347/3/6
f 347/3/6 344/3/6 348/3/6
f 345/3/6 346/3/6 349/3/6
f 349/3/6 346/3/6 350/3/6
f 351/3/6 352/3/6 355/3/6
f 355/3/6 352/3/6 356/3/6
f 353/3/6 354/3/6 357/3/6
f 357/3/6 354/3/6 358/3/6
f 359/3/6 360/3/6 364/3/6
f 364/3/6 360/3/6 365/3/6
f 365/3/6 360/3/6 366/3/6
f 361/3/6 362/3/6 369/3/6
f 369/3/6 362/3/6 370/3/6
f 370/3/6 362/3/6 371/3/6
f 363/3/6 364/3/6 373/3/6
f 364/3/6 365/3/6 373/3/6
f 373/3/6 365/3/6 374/3/6
f 366/3/6 367/3/6 375/3/6
f 375/3/6 367/3/6 376/3/6
f 368/3/6 369/3/6 377/3/6
f 377/3/6 369/3/6 378/3/6
f 371/3/6 372/3/6 379/3/6
f 370/3/6 371/3/6 379/3/6
f 379/3/6 372/3/6 380/3/6
f 381/3/6 382/3/6 389/3/6
f 389/3/6 382/3/6 390/3/6
f 383/3/6 384/3/6 391/3/6
f 391/3/6 384/3/6 392/3/6
f 385/3/6 386/3/6 393/3/6
f 393/3/6 386/3/6 394/3/6
f 387/3/6 388/3/6 395/3/6
f 395/3/6 388/3/6 396/3/6
f 397/4/6 398/4/6 401/4/6
f 401/4/6 398/4/6 402/4/6
f 399/4/6 400/4/6 403/4/6
f 403/4/6 400/4/6 404/4/6
f 405/4/6 406/4/6 409/4/6
f 409/4/6 406/4/6 410/4/6
f 407/4/6 408/4/6 411/4/6
f 411/4/6 408/4/6 412/4/6
f 413/5/6 414/5/6 417/5/6
f 417/5/6 414/5/6 418/5/6
f 415/5/6 416/5/6 419/5/6
f 419/5/6 416/5/6 420/5/6
f 421/5/6 422/5/6 423/5/6
f 423/5/6 422/5/6 424/5/6
f 421/5/6 423/5/6 425/5/6
f 423/4/6 424/4/6 425/4/6
f 425/4/6 424/4/6 426/4/6
f 426/4/6 424/4/6 427/4/6
f 424/5/6 422/5/6 428/5/6
f 427/4/6 424/4/6 428/4/6
f 421/5/6 425/5/6 429/5/6
f 425/5/6 426/5/6 429/5/6
f 426/1/6 427/1/6 430/1/6
f 429/5/6 426/5/6 430/5/6
f 427/5/6 428/5/6 431/5/6
f 430/1/6 427/1/6 431/1/6
f 428/5/6 422/5/6 432/5/6
f 431/5/6 428/5/6 432/5/6
